<svg width="364" height="80" viewBox="0 0 364 80" fill="none" xmlns="http://www.w3.org/2000/svg">
<path d="M52.8437 33V6.972H63.2477C66.8837 6.972 69.5297 7.566 71.1857 8.754C72.8537 9.93 73.6877 11.628 73.6877 13.848C73.6877 15.048 73.3877 16.11 72.7877 17.034C72.1877 17.958 71.0837 18.816 69.4757 19.608C70.6157 19.944 71.5097 20.37 72.1577 20.886C72.8177 21.402 73.2977 21.954 73.5977 22.542C73.8977 23.13 74.0897 23.718 74.1737 24.306C74.2577 24.882 74.2997 25.416 74.2997 25.908C74.2997 28.332 73.4957 30.12 71.8877 31.272C70.2917 32.424 67.6037 33 63.8237 33H52.8437ZM59.8457 27.744H64.0757C65.1077 27.744 65.8817 27.468 66.3977 26.916C66.9137 26.352 67.1717 25.728 67.1717 25.044C67.1717 24.564 67.0517 24.138 66.8117 23.766C66.5717 23.382 66.2297 23.082 65.7857 22.866C65.3537 22.638 64.8437 22.524 64.2557 22.524H59.8457V27.744ZM59.8457 17.124H64.2557C64.6757 17.124 65.0477 17.064 65.3717 16.944C65.7077 16.824 65.9897 16.662 66.2177 16.458C66.4577 16.242 66.6377 15.99 66.7577 15.702C66.8897 15.402 66.9557 15.084 66.9557 14.748C66.9557 13.968 66.6677 13.356 66.0917 12.912C65.5277 12.456 64.8317 12.228 64.0037 12.228H59.8457V17.124ZM82.2292 33.36C81.0652 33.36 79.9912 33.132 79.0072 32.676C78.0352 32.22 77.2552 31.554 76.6672 30.678C76.0912 29.79 75.8032 28.704 75.8032 27.42C75.8032 25.404 76.6012 23.838 78.1972 22.722C79.8052 21.606 82.3012 21.048 85.6852 21.048H87.1252V20.256C87.1252 19.656 86.9572 19.218 86.6212 18.942C86.2972 18.666 85.7812 18.54 85.0732 18.564C84.5932 18.576 84.0652 18.69 83.4892 18.906C82.9132 19.122 82.4812 19.548 82.1932 20.184H76.5232C76.5952 18.72 77.0332 17.538 77.8372 16.638C78.6412 15.726 79.7032 15.066 81.0232 14.658C82.3432 14.238 83.8012 14.028 85.3972 14.028C87.5572 14.028 89.2492 14.274 90.4732 14.766C91.6972 15.258 92.5612 15.942 93.0652 16.818C93.5692 17.682 93.8212 18.684 93.8212 19.824V33H88.0252L87.4132 30.048C86.8612 31.308 86.1772 32.178 85.3612 32.658C84.5452 33.126 83.5012 33.36 82.2292 33.36ZM84.6952 28.932C85.0312 28.932 85.3432 28.872 85.6312 28.752C85.9312 28.632 86.1892 28.47 86.4052 28.266C86.6212 28.05 86.7892 27.81 86.9092 27.546C87.0412 27.282 87.1132 27 87.1252 26.7V24.36H86.0092C85.6372 24.36 85.1632 24.432 84.5872 24.576C84.0112 24.708 83.4952 24.942 83.0392 25.278C82.5952 25.614 82.3732 26.088 82.3732 26.7C82.3732 27.396 82.6072 27.942 83.0752 28.338C83.5552 28.734 84.0952 28.932 84.6952 28.932ZM96.3277 33V14.388H103.258V16.962C103.522 16.566 103.858 16.164 104.266 15.756C104.674 15.348 105.202 15.006 105.85 14.73C106.498 14.454 107.308 14.316 108.28 14.316C109.372 14.316 110.41 14.526 111.394 14.946C112.39 15.366 113.2 16.038 113.824 16.962C114.46 17.886 114.778 19.104 114.778 20.616V33H107.758V21.57C107.758 20.958 107.53 20.49 107.074 20.166C106.618 19.842 106.126 19.68 105.598 19.68C105.262 19.68 104.914 19.752 104.554 19.896C104.206 20.04 103.912 20.256 103.672 20.544C103.444 20.82 103.33 21.162 103.33 21.57V33H96.3277ZM125.953 33.36C124.177 33.36 122.581 32.958 121.165 32.154C119.749 31.35 118.627 30.228 117.799 28.788C116.983 27.348 116.575 25.68 116.575 23.784C116.575 21.864 116.983 20.172 117.799 18.708C118.615 17.244 119.731 16.098 121.147 15.27C122.563 14.442 124.165 14.028 125.953 14.028C127.705 14.028 129.181 14.4 130.381 15.144C131.593 15.888 132.511 16.866 133.135 18.078C133.771 19.29 134.101 20.592 134.125 21.984H128.455C128.407 21.636 128.305 21.246 128.149 20.814C127.993 20.382 127.747 20.01 127.411 19.698C127.075 19.374 126.607 19.212 126.007 19.212C125.107 19.212 124.381 19.59 123.829 20.346C123.289 21.09 123.019 22.212 123.019 23.712C123.019 25.236 123.313 26.424 123.901 27.276C124.489 28.116 125.239 28.536 126.151 28.536C126.739 28.536 127.195 28.362 127.519 28.014C127.855 27.654 128.095 27.258 128.239 26.826C128.395 26.394 128.491 26.052 128.527 25.8H134.035C134.035 27.12 133.711 28.356 133.063 29.508C132.427 30.66 131.509 31.59 130.309 32.298C129.109 33.006 127.657 33.36 125.953 33.36ZM142.037 33.36C140.873 33.36 139.799 33.132 138.815 32.676C137.843 32.22 137.063 31.554 136.475 30.678C135.899 29.79 135.611 28.704 135.611 27.42C135.611 25.404 136.409 23.838 138.005 22.722C139.613 21.606 142.109 21.048 145.493 21.048H146.933V20.256C146.933 19.656 146.765 19.218 146.429 18.942C146.105 18.666 145.589 18.54 144.881 18.564C144.401 18.576 143.873 18.69 143.297 18.906C142.721 19.122 142.289 19.548 142.001 20.184H136.331C136.403 18.72 136.841 17.538 137.645 16.638C138.449 15.726 139.511 15.066 140.831 14.658C142.151 14.238 143.609 14.028 145.205 14.028C147.365 14.028 149.057 14.274 150.281 14.766C151.505 15.258 152.369 15.942 152.873 16.818C153.377 17.682 153.629 18.684 153.629 19.824V33H147.833L147.221 30.048C146.669 31.308 145.985 32.178 145.169 32.658C144.353 33.126 143.309 33.36 142.037 33.36ZM144.503 28.932C144.839 28.932 145.151 28.872 145.439 28.752C145.739 28.632 145.997 28.47 146.213 28.266C146.429 28.05 146.597 27.81 146.717 27.546C146.849 27.282 146.921 27 146.933 26.7V24.36H145.817C145.445 24.36 144.971 24.432 144.395 24.576C143.819 24.708 143.303 24.942 142.847 25.278C142.403 25.614 142.181 26.088 142.181 26.7C142.181 27.396 142.415 27.942 142.883 28.338C143.363 28.734 143.903 28.932 144.503 28.932ZM164.848 33.36C162.928 33.36 161.26 32.952 159.844 32.136C158.44 31.32 157.348 30.198 156.568 28.77C155.8 27.33 155.416 25.68 155.416 23.82C155.416 21.864 155.818 20.154 156.622 18.69C157.438 17.214 158.554 16.068 159.97 15.252C161.398 14.436 163.036 14.028 164.884 14.028C166.828 14.028 168.502 14.454 169.906 15.306C171.322 16.146 172.408 17.304 173.164 18.78C173.932 20.256 174.316 21.936 174.316 23.82C174.316 25.668 173.926 27.312 173.146 28.752C172.378 30.18 171.286 31.308 169.87 32.136C168.454 32.952 166.78 33.36 164.848 33.36ZM164.884 28.284C165.628 28.284 166.186 28.032 166.558 27.528C166.942 27.012 167.194 26.388 167.314 25.656C167.446 24.924 167.512 24.228 167.512 23.568C167.512 22.896 167.446 22.212 167.314 21.516C167.194 20.808 166.942 20.22 166.558 19.752C166.186 19.272 165.628 19.032 164.884 19.032C164.128 19.032 163.558 19.272 163.174 19.752C162.802 20.22 162.55 20.808 162.418 21.516C162.286 22.212 162.22 22.896 162.22 23.568C162.22 24.228 162.286 24.924 162.418 25.656C162.55 26.388 162.802 27.012 163.174 27.528C163.558 28.032 164.128 28.284 164.884 28.284ZM176.952 26.232V21.3H187.392V26.232H176.952ZM191.036 33V6.972H201.44C205.076 6.972 207.722 7.566 209.378 8.754C211.046 9.93 211.88 11.628 211.88 13.848C211.88 15.048 211.58 16.11 210.98 17.034C210.38 17.958 209.276 18.816 207.668 19.608C208.808 19.944 209.702 20.37 210.35 20.886C211.01 21.402 211.49 21.954 211.79 22.542C212.09 23.13 212.282 23.718 212.366 24.306C212.45 24.882 212.492 25.416 212.492 25.908C212.492 28.332 211.688 30.12 210.08 31.272C208.484 32.424 205.796 33 202.016 33H191.036ZM198.038 27.744H202.268C203.3 27.744 204.074 27.468 204.59 26.916C205.106 26.352 205.364 25.728 205.364 25.044C205.364 24.564 205.244 24.138 205.004 23.766C204.764 23.382 204.422 23.082 203.978 22.866C203.546 22.638 203.036 22.524 202.448 22.524H198.038V27.744ZM198.038 17.124H202.448C202.868 17.124 203.24 17.064 203.564 16.944C203.9 16.824 204.182 16.662 204.41 16.458C204.65 16.242 204.83 15.99 204.95 15.702C205.082 15.402 205.148 15.084 205.148 14.748C205.148 13.968 204.86 13.356 204.284 12.912C203.72 12.456 203.024 12.228 202.196 12.228H198.038V17.124ZM220.421 33.36C219.257 33.36 218.183 33.132 217.199 32.676C216.227 32.22 215.447 31.554 214.859 30.678C214.283 29.79 213.995 28.704 213.995 27.42C213.995 25.404 214.793 23.838 216.389 22.722C217.997 21.606 220.493 21.048 223.877 21.048H225.317V20.256C225.317 19.656 225.149 19.218 224.813 18.942C224.489 18.666 223.973 18.54 223.265 18.564C222.785 18.576 222.257 18.69 221.681 18.906C221.105 19.122 220.673 19.548 220.385 20.184H214.715C214.787 18.72 215.225 17.538 216.029 16.638C216.833 15.726 217.895 15.066 219.215 14.658C220.535 14.238 221.993 14.028 223.589 14.028C225.749 14.028 227.441 14.274 228.665 14.766C229.889 15.258 230.753 15.942 231.257 16.818C231.761 17.682 232.013 18.684 232.013 19.824V33H226.217L225.605 30.048C225.053 31.308 224.369 32.178 223.553 32.658C222.737 33.126 221.693 33.36 220.421 33.36ZM222.887 28.932C223.223 28.932 223.535 28.872 223.823 28.752C224.123 28.632 224.381 28.47 224.597 28.266C224.813 28.05 224.981 27.81 225.101 27.546C225.233 27.282 225.305 27 225.317 26.7V24.36H224.201C223.829 24.36 223.355 24.432 222.779 24.576C222.203 24.708 221.687 24.942 221.231 25.278C220.787 25.614 220.565 26.088 220.565 26.7C220.565 27.396 220.799 27.942 221.267 28.338C221.747 28.734 222.287 28.932 222.887 28.932ZM234.52 33V14.388H241.45V16.962C241.714 16.566 242.05 16.164 242.458 15.756C242.866 15.348 243.394 15.006 244.042 14.73C244.69 14.454 245.5 14.316 246.472 14.316C247.564 14.316 248.602 14.526 249.586 14.946C250.582 15.366 251.392 16.038 252.016 16.962C252.652 17.886 252.97 19.104 252.97 20.616V33H245.95V21.57C245.95 20.958 245.722 20.49 245.266 20.166C244.81 19.842 244.318 19.68 243.79 19.68C243.454 19.68 243.106 19.752 242.746 19.896C242.398 20.04 242.104 20.256 241.864 20.544C241.636 20.82 241.522 21.162 241.522 21.57V33H234.52ZM264.145 33.36C262.369 33.36 260.773 32.958 259.357 32.154C257.941 31.35 256.819 30.228 255.991 28.788C255.175 27.348 254.767 25.68 254.767 23.784C254.767 21.864 255.175 20.172 255.991 18.708C256.807 17.244 257.923 16.098 259.339 15.27C260.755 14.442 262.357 14.028 264.145 14.028C265.897 14.028 267.373 14.4 268.573 15.144C269.785 15.888 270.703 16.866 271.327 18.078C271.963 19.29 272.293 20.592 272.317 21.984H266.647C266.599 21.636 266.497 21.246 266.341 20.814C266.185 20.382 265.939 20.01 265.603 19.698C265.267 19.374 264.799 19.212 264.199 19.212C263.299 19.212 262.573 19.59 262.021 20.346C261.481 21.09 261.211 22.212 261.211 23.712C261.211 25.236 261.505 26.424 262.093 27.276C262.681 28.116 263.431 28.536 264.343 28.536C264.931 28.536 265.387 28.362 265.711 28.014C266.047 27.654 266.287 27.258 266.431 26.826C266.587 26.394 266.683 26.052 266.719 25.8H272.227C272.227 27.12 271.903 28.356 271.255 29.508C270.619 30.66 269.701 31.59 268.501 32.298C267.301 33.006 265.849 33.36 264.145 33.36ZM280.229 33.36C279.065 33.36 277.991 33.132 277.007 32.676C276.035 32.22 275.255 31.554 274.667 30.678C274.091 29.79 273.803 28.704 273.803 27.42C273.803 25.404 274.601 23.838 276.197 22.722C277.805 21.606 280.301 21.048 283.685 21.048H285.125V20.256C285.125 19.656 284.957 19.218 284.621 18.942C284.297 18.666 283.781 18.54 283.073 18.564C282.593 18.576 282.065 18.69 281.489 18.906C280.913 19.122 280.481 19.548 280.193 20.184H274.523C274.595 18.72 275.033 17.538 275.837 16.638C276.641 15.726 277.703 15.066 279.023 14.658C280.343 14.238 281.801 14.028 283.397 14.028C285.557 14.028 287.249 14.274 288.473 14.766C289.697 15.258 290.561 15.942 291.065 16.818C291.569 17.682 291.821 18.684 291.821 19.824V33H286.025L285.413 30.048C284.861 31.308 284.177 32.178 283.361 32.658C282.545 33.126 281.501 33.36 280.229 33.36ZM282.695 28.932C283.031 28.932 283.343 28.872 283.631 28.752C283.931 28.632 284.189 28.47 284.405 28.266C284.621 28.05 284.789 27.81 284.909 27.546C285.041 27.282 285.113 27 285.125 26.7V24.36H284.009C283.637 24.36 283.163 24.432 282.587 24.576C282.011 24.708 281.495 24.942 281.039 25.278C280.595 25.614 280.373 26.088 280.373 26.7C280.373 27.396 280.607 27.942 281.075 28.338C281.555 28.734 282.095 28.932 282.695 28.932ZM303.04 33.36C301.12 33.36 299.452 32.952 298.036 32.136C296.632 31.32 295.54 30.198 294.76 28.77C293.992 27.33 293.608 25.68 293.608 23.82C293.608 21.864 294.01 20.154 294.814 18.69C295.63 17.214 296.746 16.068 298.162 15.252C299.59 14.436 301.228 14.028 303.076 14.028C305.02 14.028 306.694 14.454 308.098 15.306C309.514 16.146 310.6 17.304 311.356 18.78C312.124 20.256 312.508 21.936 312.508 23.82C312.508 25.668 312.118 27.312 311.338 28.752C310.57 30.18 309.478 31.308 308.062 32.136C306.646 32.952 304.972 33.36 303.04 33.36ZM303.076 28.284C303.82 28.284 304.378 28.032 304.75 27.528C305.134 27.012 305.386 26.388 305.506 25.656C305.638 24.924 305.704 24.228 305.704 23.568C305.704 22.896 305.638 22.212 305.506 21.516C305.386 20.808 305.134 20.22 304.75 19.752C304.378 19.272 303.82 19.032 303.076 19.032C302.32 19.032 301.75 19.272 301.366 19.752C300.994 20.22 300.742 20.808 300.61 21.516C300.478 22.212 300.412 22.896 300.412 23.568C300.412 24.228 300.478 24.924 300.61 25.656C300.742 26.388 300.994 27.012 301.366 27.528C301.75 28.032 302.32 28.284 303.076 28.284ZM147.879 73L157.095 46.972H164.259L173.475 73H166.563L164.835 67.96H156.627L154.863 73H147.879ZM158.103 61.984H163.251L160.695 53.668L158.103 61.984ZM174.923 78.796V54.388H181.961V56.548C182.309 56.068 182.705 55.666 183.149 55.342C183.605 55.018 184.079 54.76 184.571 54.568C185.063 54.376 185.555 54.238 186.047 54.154C186.539 54.07 187.001 54.028 187.433 54.028C188.729 54.028 189.893 54.37 190.925 55.054C191.957 55.738 192.773 56.794 193.373 58.222C193.973 59.638 194.273 61.444 194.273 63.64C194.273 66.004 193.913 67.9 193.193 69.328C192.485 70.744 191.549 71.77 190.385 72.406C189.233 73.042 187.997 73.36 186.677 73.36C186.293 73.36 185.885 73.312 185.453 73.216C185.033 73.12 184.607 72.97 184.175 72.766C183.755 72.55 183.353 72.28 182.969 71.956C182.585 71.62 182.237 71.212 181.925 70.732V78.796H174.923ZM184.841 68.356C185.621 68.356 186.305 67.99 186.893 67.258C187.493 66.514 187.793 65.308 187.793 63.64C187.793 62.128 187.493 60.97 186.893 60.166C186.305 59.362 185.621 58.96 184.841 58.96C183.821 58.96 183.077 59.428 182.609 60.364C182.153 61.288 181.925 62.38 181.925 63.64C181.925 64.396 182.027 65.14 182.231 65.872C182.435 66.592 182.747 67.186 183.167 67.654C183.599 68.122 184.157 68.356 184.841 68.356ZM196.242 78.796V54.388H203.28V56.548C203.628 56.068 204.024 55.666 204.468 55.342C204.924 55.018 205.398 54.76 205.89 54.568C206.382 54.376 206.874 54.238 207.366 54.154C207.858 54.07 208.32 54.028 208.752 54.028C210.048 54.028 211.212 54.37 212.244 55.054C213.276 55.738 214.092 56.794 214.692 58.222C215.292 59.638 215.592 61.444 215.592 63.64C215.592 66.004 215.232 67.9 214.512 69.328C213.804 70.744 212.868 71.77 211.704 72.406C210.552 73.042 209.316 73.36 207.996 73.36C207.612 73.36 207.204 73.312 206.772 73.216C206.352 73.12 205.926 72.97 205.494 72.766C205.074 72.55 204.672 72.28 204.288 71.956C203.904 71.62 203.556 71.212 203.244 70.732V78.796H196.242ZM206.16 68.356C206.94 68.356 207.624 67.99 208.212 67.258C208.812 66.514 209.112 65.308 209.112 63.64C209.112 62.128 208.812 60.97 208.212 60.166C207.624 59.362 206.94 58.96 206.16 58.96C205.14 58.96 204.396 59.428 203.928 60.364C203.472 61.288 203.244 62.38 203.244 63.64C203.244 64.396 203.346 65.14 203.55 65.872C203.754 66.592 204.066 67.186 204.486 67.654C204.918 68.122 205.476 68.356 206.16 68.356Z" fill="#006CBF"/>
</svg>
